<svg xmlns="http://www.w3.org/2000/svg" width="22.598" height="20.776" viewBox="0 0 22.598 20.776">
    <path data-name="Path 712" d="M8.89 23.148h7.16a.753.753 0 0 0 .585-.226.874.874 0 0 0 .2-.634.934.934 0 0 0-.2-.645.739.739 0 0 0-.581-.226H8.916a1.253 1.253 0 0 1-1.016-.422 1.923 1.923 0 0 1-.356-1.262V7.905H6.128v11.913a3.826 3.826 0 0 0 .695 2.5 2.539 2.539 0 0 0 2.067.83zM2.961 10.816a.611.611 0 0 0 .515.263.7.7 0 0 0 .506-.285l.844-1.021 1.354-1.76H7.5l1.354 1.761.846 1.021a.721.721 0 0 0 .51.285.607.607 0 0 0 .51-.263.935.935 0 0 0 .216-.623.951.951 0 0 0-.236-.624L7.737 5.961a1.2 1.2 0 0 0-.893-.516 1.2 1.2 0 0 0-.893.516L2.987 9.57a.971.971 0 0 0-.237.623.917.917 0 0 0 .211.623zm16.247-8.444h-7.16a.756.756 0 0 0-.581.226.863.863 0 0 0-.2.634.965.965 0 0 0 .211.645.728.728 0 0 0 .572.226h7.142a1.239 1.239 0 0 1 1.012.424 1.94 1.94 0 0 1 .352 1.262v11.826h1.414V5.7a3.844 3.844 0 0 0-.69-2.5 2.536 2.536 0 0 0-2.072-.828zm5.929 12.321a.614.614 0 0 0-.51-.252.721.721 0 0 0-.51.285l-.844 1.01-1.355 1.772H20.6l-1.355-1.772-.844-1.01a.721.721 0 0 0-.51-.285.614.614 0 0 0-.51.252.969.969 0 0 0-.216.628.987.987 0 0 0 .233.628l2.964 3.6a1.028 1.028 0 0 0 1.794 0l2.955-3.6a1.008 1.008 0 0 0 .237-.628.949.949 0 0 0-.211-.628z" transform="translate(-2.75 -2.372)" style="fill:#fff"/>
</svg>
