<?xml version="1.0" standalone="no"?>
<!DOCTYPE svg PUBLIC "-//W3C//DTD SVG 20010904//EN"
 "http://www.w3.org/TR/2001/REC-SVG-20010904/DTD/svg10.dtd">
<svg version="1.0" xmlns="http://www.w3.org/2000/svg"
 width="260.000000pt" height="260.000000pt" viewBox="0 0 260.000000 260.000000"
 preserveAspectRatio="xMidYMid meet">
<metadata>
Created by potrace 1.14, written by Peter Selinger 2001-2017
</metadata>
<g transform="translate(0.000000,260.000000) scale(0.100000,-0.100000)"
fill="#000000" stroke="none">
<path d="M1515 2567 c-16 -6 -54 -26 -84 -45 -52 -32 -55 -33 -102 -22 -107
26 -267 15 -368 -26 -35 -14 -40 -13 -95 11 -81 36 -171 55 -281 60 -91 4 -96
3 -127 -23 -112 -92 -204 -214 -237 -315 -32 -97 -38 -164 -39 -399 -1 -253
-1 -251 85 -222 56 19 169 80 197 106 11 10 23 18 26 18 3 0 16 -32 28 -71 24
-77 75 -164 128 -219 l33 -35 -62 -42 c-120 -81 -237 -214 -306 -347 -42 -81
-74 -181 -74 -231 0 -91 68 -183 188 -252 35 -20 61 -41 58 -46 -3 -6 -7 -46
-8 -90 -5 -152 42 -250 141 -300 76 -39 266 -65 440 -62 148 3 201 28 260 123
1 2 40 -4 86 -14 106 -22 218 -22 291 1 138 43 212 196 203 418 -3 59 0 71 21
95 63 73 97 186 78 268 -31 137 -170 335 -319 452 l-29 22 34 53 c86 132 132
271 132 397 0 47 -3 96 -6 110 -16 75 -28 120 -36 142 l-10 25 77 0 c109 0
206 11 367 39 77 14 150 27 163 29 32 5 52 24 52 49 0 39 -192 164 -350 229
-98 40 -230 82 -310 98 -30 6 -73 15 -95 20 -53 11 -113 9 -150 -4z m-560
-738 c17 -6 35 -13 41 -14 20 -5 64 -37 64 -47 0 -5 4 -7 9 -4 17 11 81 -80
131 -186 16 -33 14 -35 -25 -43 -72 -16 -143 -17 -174 -1 -72 38 -151 180
-151 273 l0 46 38 -6 c20 -3 51 -11 67 -18z m719 -118 c10 -15 -57 -94 -104
-123 -49 -30 -140 -49 -140 -29 0 19 43 78 75 103 29 23 116 57 147 58 9 0 19
-4 22 -9z"/>
</g>
</svg>
